<svg version="1.0" xmlns="http://www.w3.org/2000/svg"
 width="157.000000pt" height="261.000000pt" viewBox="0 0 157.000000 261.000000"
 preserveAspectRatio="xMidYMid meet">
<g transform="translate(0.000000,261.000000) scale(0.100000,-0.100000)"
fill="#000000" stroke="none">
<path d="M1215 2382 c-83 -81 -279 -266 -435 -412 -339 -314 -640 -609 -640
-626 0 -15 279 -283 680 -652 168 -155 360 -333 428 -397 l122 -117 0 280 0
281 -25 19 c-58 46 -655 593 -655 601 0 5 153 145 340 312 l340 304 0 278 c0
152 -1 277 -2 277 -2 -1 -71 -67 -153 -148z"/>
</g>
</svg>
